<svg xmlns="http://www.w3.org/2000/svg" viewBox="0 0 64.16 64.16"><defs><style>.cls-1{fill:#474747;}</style></defs><title>ae</title><g id="Layer_2" data-name="Layer 2"><g id="Layer_1-2" data-name="Layer 1"><path class="cls-1" d="M5.83,0A5.83,5.83,0,0,0,0,5.83v52.5a5.83,5.83,0,0,0,5.83,5.83h52.5a5.83,5.83,0,0,0,5.83-5.83V5.83A5.83,5.83,0,0,0,58.33,0ZM18.71,17.87h5.78L34.71,46.64H29.19l-2.43-7.36H16.17L13.7,46.64H8.5Zm2.6,5.48L17.37,35.21h8.19l-3.9-11.86Zm25.8,1c6.22,0,10,4.12,10,11V37H41.83v.26c.12,3.62,2.21,5.9,5.46,5.9,2.45,0,4.15-.9,4.87-2.52h4.68c-.93,4-4.55,6.45-9.69,6.45-6.42,0-10.29-4.25-10.29-11.27S40.79,24.39,47.11,24.39Zm0,3.92c-3,0-5,2.11-5.24,5.3H52.12C52,30.38,50.06,28.31,47.09,28.31Z"/></g></g></svg>