<svg xmlns="http://www.w3.org/2000/svg" viewBox="0 0 64.16 64.16"><defs><style>.cls-1{fill:#474747;}</style></defs><title>ai</title><g id="Layer_2" data-name="Layer 2"><g id="Layer_1-2" data-name="Layer 1"><path class="cls-1" d="M5.83,0A5.83,5.83,0,0,0,0,5.83v52.5a5.83,5.83,0,0,0,5.83,5.83h52.5a5.83,5.83,0,0,0,5.83-5.83V5.83A5.83,5.83,0,0,0,58.33,0ZM45.67,15.3a2.75,2.75,0,1,1,0,5.47,2.75,2.75,0,1,1,0-5.47ZM22.73,17.36h5.78L38.73,46.13H33.21l-2.43-7.35H20.2l-2.48,7.35h-5.2Zm2.61,5.48L21.39,34.7h8.19l-3.9-11.86Zm17.88,1.48h4.92V46.13H43.22Z"/></g></g></svg>