<svg xmlns="http://www.w3.org/2000/svg" viewBox="0 0 50.5 63.14"><defs><style>.cls-1{fill:#474747;}</style></defs><title>android</title><g id="Layer_2" data-name="Layer 2"><g id="Layer_1-2" data-name="Layer 1"><path class="cls-1" d="M14.24.05a1.14,1.14,0,0,0-.47.16A1.29,1.29,0,0,0,13.45,2l2.73,4.06A16,16,0,0,0,7.81,16.43H42.69A16,16,0,0,0,34.32,6.05L37.05,2A1.29,1.29,0,0,0,36.73.21,1.29,1.29,0,0,0,35,.57L32,5A19.67,19.67,0,0,0,18.54,5l-3-4.41A1.26,1.26,0,0,0,14.24.05Zm4.07,10.06a1.9,1.9,0,1,1-1.9,1.9A1.9,1.9,0,0,1,18.31,10.11Zm13.88,0A1.9,1.9,0,1,1,30.3,12,1.9,1.9,0,0,1,32.19,10.11ZM3.79,19A3.79,3.79,0,0,0,0,22.74V40.41A3.79,3.79,0,0,0,3.79,44.2,3.53,3.53,0,0,0,5.05,44V19.19A3.76,3.76,0,0,0,3.79,19Zm3.78,0V46.73a3.8,3.8,0,0,0,3.79,3.78H39.14a3.8,3.8,0,0,0,3.79-3.78V19Zm39.14,0a3.76,3.76,0,0,0-1.26.24V44a3.73,3.73,0,0,0,5-3.55V22.74A3.79,3.79,0,0,0,46.71,19ZM12.62,53v5.05a5.05,5.05,0,1,0,10.1,0V53Zm15.15,0v5.05a5.06,5.06,0,0,0,10.11,0V53Z"/></g></g></svg>