<svg xmlns="http://www.w3.org/2000/svg" viewBox="0 0 54.5 63.43"><defs><style>.cls-1{fill:#474747;}</style></defs><title>apple</title><g id="Layer_2" data-name="Layer 2"><g id="Layer_1-2" data-name="Layer 1"><path class="cls-1" d="M54.5,46.53a45.92,45.92,0,0,1-4.11,7.7c-2.68,4.07-6.46,9.15-11.12,9.18-4.15,0-5.23-2.71-10.86-2.66s-6.81,2.72-11,2.67c-4.67,0-8.24-4.62-10.92-8.68C-1,43.34-1.76,30,2.87,22.86c3.27-5,8.45-8,13.31-8s8.07,2.72,12.17,2.72,6.39-2.72,12.12-2.72c4.33,0,8.91,2.36,12.18,6.43C42,27.15,43.69,42.44,54.5,46.53ZM36.12,10.3A13.9,13.9,0,0,0,39.21,0a15.06,15.06,0,0,0-9.7,5.21c-2.1,2.57-3.85,6.37-3.17,10.05C30.05,15.38,33.89,13.16,36.12,10.3Z"/></g></g></svg>