<svg xmlns="http://www.w3.org/2000/svg" viewBox="0 0 57.5 62.5"><defs><style>.cls-1{fill:#474747;}</style></defs><title>as</title><g id="Layer_2" data-name="Layer 2"><g id="Layer_1-2" data-name="Layer 1"><path class="cls-1" d="M28.75,0A28.72,28.72,0,0,0,8.84,49.45L6.4,53.72A2.48,2.48,0,0,0,6.07,55v5a2.5,2.5,0,0,0,3.77,2.15l4.34-2.55a2.41,2.41,0,0,0,.9-.92L17.16,55a28.53,28.53,0,0,0,23.18,0l2.08,3.64a2.41,2.41,0,0,0,.9.92l4.34,2.55A2.5,2.5,0,0,0,51.43,60V55a2.48,2.48,0,0,0-.33-1.24l-2.44-4.27A28.72,28.72,0,0,0,28.75,0Zm-2.5,11.25h5A1.25,1.25,0,0,1,32.5,12.5v3.75H35a2.5,2.5,0,0,1,2.5,2.5V29.17a1.22,1.22,0,0,1-.37.88l-6.82,6.78a2.26,2.26,0,0,1-3.21,0l-6.74-6.78a1.25,1.25,0,0,1-.36-.88V18.75a2.5,2.5,0,0,1,2.5-2.5H25V12.5A1.25,1.25,0,0,1,26.25,11.25Zm2.5,10A3.75,3.75,0,1,0,32.5,25,3.75,3.75,0,0,0,28.75,21.25ZM43.69,30h5a20,20,0,0,1-6.37,13.4h0a19.48,19.48,0,0,1-4.08,2.93h0a19.82,19.82,0,0,1-19,0L12.91,57.44,8.57,60V55l12.06-21.1,3.65,3.68L21.74,42a14.92,14.92,0,0,0,14,0h0a15.25,15.25,0,0,0,4-3.09h0v0A15,15,0,0,0,43.69,30Zm-6.83,3.85,1.58,2.75a12.84,12.84,0,0,1-3.92,3.22L33.19,37.5ZM43.6,45.63,48.93,55v5h0l-4.34-2.56-5.11-8.93A23.23,23.23,0,0,0,43.6,45.63Z"/></g></g></svg>