<svg xmlns="http://www.w3.org/2000/svg" viewBox="0 0 94.57 56.76"><defs><style>.cls-1{fill:#474747;}</style></defs><title>aws</title><g id="Layer_2" data-name="Layer 2"><g id="Layer_1-2" data-name="Layer 1"><path class="cls-1" d="M17.6,0C13.31,0,9,1.71,8.23,2.63c-.18.38-.62,3.43.42,3.43a2.6,2.6,0,0,0,1.51-.41A17.85,17.85,0,0,1,16.69,4.2c4.25-.41,6.71,2.5,6.33,6.25v2.2a27.21,27.21,0,0,0-6.65-.88C11.14,11.46,6.3,14.22,6.3,20.28c0,6.65,5.94,8.07,8.24,8a11.32,11.32,0,0,0,8.89-4.19c1.73,3.87,2.84,3.62,2.87,3.62a1.51,1.51,0,0,0,.82-.29l1.8-1.26a1.17,1.17,0,0,0,.59-.88c0-.91-1.67-2.33-1.54-5.52V9.91A10,10,0,0,0,25.45,2.5,10.79,10.79,0,0,0,17.6,0ZM78.67,0C72.37,0,68.74,4,68.84,8c0,5.49,5.54,7.23,6.17,7.42,5.33,1.67,6.06,1.73,7.54,3a3.23,3.23,0,0,1-.76,4.92c-.53.32-2.84,1.7-8,.63a18.25,18.25,0,0,1-4.06-1.36c-.38-.12-1.26-.34-1.26.82V25a1.92,1.92,0,0,0,1.1,1.7,19.51,19.51,0,0,0,8.13,1.73c.13,0,7.38,0,9.8-4.89a7.68,7.68,0,0,0-.62-7.84c-2-2.36-3.76-2.62-8.93-4.19-.44-.13-4.25-1.11-4.22-3.79-.19-3.44,4.48-3.62,5.46-3.56,3.94-.06,5.89,1.42,7,1.51.47,0,.7-.28.7-.91V3.26a1.57,1.57,0,0,0-.29-1C85.26.64,80.44,0,78.67,0ZM30.82.83a.67.67,0,0,0-.54.76,6.09,6.09,0,0,0,.29,1.23l7.06,23.29a1.59,1.59,0,0,0,1.76,1.45H42a1.64,1.64,0,0,0,1.82-1.51L48.44,6.63l4.7,19.45a1.65,1.65,0,0,0,1.8,1.52h2.61a1.65,1.65,0,0,0,1.83-1.46C67.33.58,66.79,2.31,66.85,2.06,67,.74,66.22.83,66.09.86h-2.8a1.6,1.6,0,0,0-1.77,1.45L56.29,22.52,51.56,2.31A1.54,1.54,0,0,0,49.76.86H47.34a1.62,1.62,0,0,0-1.83,1.45l-4.7,19.93-5-19.93A1.61,1.61,0,0,0,34,.83ZM17.41,15.43a26,26,0,0,1,5.58.69A14.07,14.07,0,0,1,22.7,20c-.44,1.51-2.39,4.26-7,4.32A3.94,3.94,0,0,1,11.49,20C11.33,16.21,15.23,15.27,17.41,15.43Zm71,19.26a16.58,16.58,0,0,0-9,2.55c-.81.57-.67,1.35.24,1.25,3-.36,9.56-1.16,10.73.35s-1.3,7.72-2.4,10.5c-.34.83.38,1.17,1.14.54,4.93-4.13,6.21-12.78,5.2-14C93.74,35.23,91.34,34.65,88.39,34.69ZM.68,37.85c-.69.09-1,1-.26,1.65C12.76,51.08,29.08,56.76,47.2,56.76c12.92,0,27.92-4.22,38.28-12.17,1.71-1.32.25-3.3-1.51-2.51a90,90,0,0,1-35.7,7.59c-17,0-33.47-3.55-46.8-11.62A1.2,1.2,0,0,0,.68,37.85Z"/></g></g></svg>