<svg xmlns="http://www.w3.org/2000/svg" viewBox="0 0 70.54 59.84"><defs><style>.cls-1{fill:#474747;}</style></defs><title>blender</title><g id="Layer_2" data-name="Layer 2"><g id="Layer_1-2" data-name="Layer 1"><path class="cls-1" d="M36.5,0a4,4,0,0,0-.91,0A4.56,4.56,0,0,0,32.5,1.72a4.61,4.61,0,0,0,.71,6.47l5.06,4.08H12.22a4.61,4.61,0,1,0,0,9.21H23.63L1.77,39.14a4.78,4.78,0,0,0,2.5,8.47,4.77,4.77,0,0,0,3.51-1L18.41,38c.89,12.18,12.23,21.85,26,21.85,14.38,0,26.09-10.5,26.09-23.4,0-8-4.47-15.32-12-19.66L39,1A4.59,4.59,0,0,0,36.5,0Zm8,23c7.61,0,13.81,5.16,13.81,11.51S52.06,46,44.45,46,30.63,40.87,30.63,34.52,36.83,23,44.45,23Zm0,3.07c-5.09,0-9.21,3.43-9.21,7.67s4.12,7.68,9.21,7.68,9.2-3.44,9.2-7.68S49.53,26.08,44.45,26.08Z"/></g></g></svg>