<svg xmlns="http://www.w3.org/2000/svg" viewBox="0 0 64.61 64.61"><defs><style>.cls-1{fill:#474747;}</style></defs><title>bootstrap</title><g id="Layer_2" data-name="Layer 2"><g id="Layer_1-2" data-name="Layer 1"><path class="cls-1" d="M39.48,22.88a4.93,4.93,0,0,1-4.93,4.94H26.92V18h7.63A4.92,4.92,0,0,1,39.48,22.88Z"/><path class="cls-1" d="M41.28,41.28a5.38,5.38,0,0,1-5.39,5.38h-9V35.89h9A5.39,5.39,0,0,1,41.28,41.28Z"/><path class="cls-1" d="M55.64,0H9A9,9,0,0,0,0,9V55.64a9,9,0,0,0,9,9H55.64a9,9,0,0,0,9-9V9A9,9,0,0,0,55.64,0ZM46.37,50.61c-2.6,2.1-6.42,3.19-11.5,3.23H16.15V10.77H32.93c5.37,0,8.53,1.36,11.33,3.39A10.26,10.26,0,0,1,48.46,23,10.58,10.58,0,0,1,47,28.71a8.11,8.11,0,0,1-3.48,3.15,8.81,8.81,0,0,1,5,3.32,9.81,9.81,0,0,1,1.74,5.92C50.25,45.32,49,48.47,46.37,50.61Z"/></g></g></svg>