<svg xmlns="http://www.w3.org/2000/svg" viewBox="0 0 57.91 63.43"><defs><style>.cls-1{fill:#474747;}</style></defs><title>c</title><g id="Layer_2" data-name="Layer 2"><g id="Layer_1-2" data-name="Layer 1"><path class="cls-1" d="M29,0a5.85,5.85,0,0,0-2.85.74L2.88,13.79A5.61,5.61,0,0,0,0,18.66V44.77a5.58,5.58,0,0,0,2.88,4.86L26.11,62.69a5.86,5.86,0,0,0,5.7,0L55,49.64a5.61,5.61,0,0,0,2.88-4.87V18.66A5.61,5.61,0,0,0,55,13.79L31.81.74A5.88,5.88,0,0,0,29,0Zm0,15.17A16.48,16.48,0,0,1,42.12,21.7l-6,3.5a9.66,9.66,0,1,0,0,13l6,3.5A16.54,16.54,0,1,1,29,15.17Zm13.79,9.65H45.5v2.76h2.76V24.82H51v2.76h2.76v2.76H51v2.75h2.76v2.76H51v2.76H48.26V35.85H45.5v2.76H42.75V35.85H40V33.09h2.76V30.34H40V27.58h2.76Zm2.75,5.52v2.75h2.76V30.34Z"/></g></g></svg>