<svg xmlns="http://www.w3.org/2000/svg" viewBox="0 0 115.28 40.14"><defs><style>.cls-1{fill:#474747;}</style></defs><title>django</title><g id="Layer_2" data-name="Layer 2"><g id="Layer_1-2" data-name="Layer 1"><path class="cls-1" d="M13.94,0V9.75a13.1,13.1,0,0,0-3.1-.32C4.25,9.43,0,13.56,0,19.93,0,26.54,4,30,11.71,30a41.73,41.73,0,0,0,8.19-.84V0Zm9.68,0V6.44h6.31V0Zm0,9.22V22.19c0,5.44-.28,7.51-1.18,9.29s-2.21,2.89-5,4.18l5.85,2.76c2.79-1.38,4.13-2.64,5.16-4.62s1.46-4.47,1.46-9.45V9.25Zm81.44,0c-6.48,0-10.52,4.06-10.53,10.57C94.53,26.1,98.45,30,104.8,30s10.48-4.06,10.48-10.54C115.28,13.15,111.41,9.25,105.06,9.25ZM41.7,9.43a17.84,17.84,0,0,0-8,1.86V16.1a15.53,15.53,0,0,1,7.11-1.9c1.53,0,2.08.41,2.08,1.54v1.37c-7.42.64-10.45,2.67-10.45,7,0,4,2.28,5.86,7.35,5.86a65.46,65.46,0,0,0,8.64-.69V16.67c0-2.59-.16-3.8-.67-4.73C46.84,10.28,44.8,9.43,41.7,9.43Zm20.36,0a38.29,38.29,0,0,0-9.9,1.41v18.9h6.3V14.9a9.37,9.37,0,0,1,2.91-.44c2.24,0,3.3.89,3.3,3.28v12h6.08V17.5c0-3.12-.42-4.59-1.73-5.92S65.29,9.43,62.06,9.43Zm25.06,0c-9.21,0-14.41,4-14.41,11.11,0,5.71,3.51,9.33,9,9.33a8.85,8.85,0,0,0,4.1-.85v.11c0,4-1.77,5.64-5.9,5.64a14.33,14.33,0,0,1-6.75-1.66h0v5.77A18.23,18.23,0,0,0,80,40.14q7.24,0,10.2-4.55C91.53,33.52,92,31,92,25.65V24c0-.85,0-1.71-.08-2.56l0-3.41-.08-2.64v-.65c1.26.12-.28-.15,1.4.17l2.16-4.5A40,40,0,0,0,87.12,9.47ZM105,14.22c2.44,0,3.83,2,3.83,5.39s-1.43,5.4-3.87,5.4S101,23,101,19.61,102.45,14.22,105,14.22Zm-93.51.24a8.5,8.5,0,0,1,2.47.32v10a19.81,19.81,0,0,1-2.51.17c-3.23,0-5-1.84-5-5.16S8.27,14.46,11.46,14.46Zm73.61,0h.65V15l0,2.06,0,2.89c0,.85,0,1.66,0,2.39v2.16a8,8,0,0,1-2.37.4c-2.79,0-4.35-1.79-4.35-4.91,0-2.19.78-3.73,2.29-4.58A6.94,6.94,0,0,1,85.07,14.5ZM43.15,21.18v4.17a16.29,16.29,0,0,1-2.9.28c-1.66,0-2.4-.57-2.4-1.78C37.85,22.24,39.15,21.58,43.15,21.18Z"/></g></g></svg>