<svg xmlns="http://www.w3.org/2000/svg" viewBox="0 0 42.17 63.25"><defs><style>.cls-1{fill:#474747;}</style></defs><title>figma</title><g id="Layer_2" data-name="Layer 2"><g id="Layer_1-2" data-name="Layer 1"><path id="path0_fill" data-name="path0 fill" class="cls-1" d="M10.54,63.25A10.54,10.54,0,0,0,21.08,52.71V42.17H10.54a10.54,10.54,0,0,0,0,21.08Z"/><path id="path1_fill" data-name="path1 fill" class="cls-1" d="M0,31.63A10.55,10.55,0,0,1,10.54,21.08H21.08V42.17H10.54A10.54,10.54,0,0,1,0,31.63Z"/><path id="path1_fill-2" data-name="path1 fill" class="cls-1" d="M0,10.54A10.54,10.54,0,0,1,10.54,0H21.08V21.08H10.54A10.54,10.54,0,0,1,0,10.54Z"/><path id="path2_fill" data-name="path2 fill" class="cls-1" d="M21.08,0H31.63a10.54,10.54,0,1,1,0,21.08H21.08Z"/><path id="path3_fill" data-name="path3 fill" class="cls-1" d="M42.17,31.63A10.55,10.55,0,1,1,31.63,21.08,10.54,10.54,0,0,1,42.17,31.63Z"/></g></g></svg>