<svg xmlns="http://www.w3.org/2000/svg" viewBox="0 0 48.92 62.3"><defs><style>.cls-1{fill:#474747;}</style></defs><title>java</title><g id="Layer_2" data-name="Layer 2"><g id="Layer_1-2" data-name="Layer 1"><path class="cls-1" d="M28.43,0c3.43,7.93-12.29,12.83-13.75,19.43C13.34,25.5,24,32.56,24,32.56a47.48,47.48,0,0,1-4.44-8.49C16.84,17.46,36.34,11.47,28.43,0ZM38.87,11s-13.79.89-14.49,9.7c-.31,3.92,3.63,6,3.74,8.84.09,2.33-2.34,4.29-2.34,4.29S30.2,33,31.59,29.4c1.53-3.94-3-6.61-2.54-9.77S38.87,11,38.87,11ZM17.21,31.35S4.6,31.17,4.6,34.74c0,3.73,16.51,4,28.31,1.71,0,0,3.13-2.15,4-3-7.73,1.58-25.35,1.76-25.35.39S17.21,31.35,17.21,31.35Zm24.27,0a7.69,7.69,0,0,0-3.78,1.44C40.54,32.18,43,33.94,43,36c0,4.51-6.55,8.76-6.55,8.76s10.13-1.15,10.13-8.57A4.45,4.45,0,0,0,41.48,31.35Zm-27.3,6.93c-1.94,0-4.83,1.52-4.83,3,0,2.9,14.56,5.13,25.35.9L31,39.84C23.65,42.18,10.18,41.42,14.18,38.28ZM16,44.79c-2.66,0-4.4,1.6-4.4,2.8,0,3.72,15.84,4.1,22.12.31l-4-2.53C25,47.35,13.26,47.66,16,44.79ZM7.13,48.14C2.8,48.05,0,50,0,51.6c0,8.57,44.24,8.18,44.24-.58,0-1.46-1.68-2.16-2.3-2.49,3.62,8.37-36.21,7.7-36.21,2.76,0-1.12,2.93-2.2,5.64-1.67l-2.3-1.33A14.7,14.7,0,0,0,7.13,48.14ZM48.92,53.9C42.19,60.28,25.14,62.59,8,58.65,25.13,65.67,48.83,61.73,48.92,53.9Z"/></g></g></svg>