<svg xmlns="http://www.w3.org/2000/svg" viewBox="0 0 63.66 63.66"><defs><style>.cls-1{fill:#474747;}</style></defs><title>js</title><g id="Layer_2" data-name="Layer 2"><g id="Layer_1-2" data-name="Layer 1"><path class="cls-1" d="M59.62,0H4A4,4,0,0,0,0,4V59.61a4,4,0,0,0,4,4H59.61a4,4,0,0,0,4-4V4A4,4,0,0,0,59.62,0ZM34.86,48.78c0,6.06-3.55,8.82-8.74,8.82a10.65,10.65,0,0,1-9.45-6.07l4.77-2.88a5,5,0,0,0,4.33,2.88c1.92,0,3-.75,3-3.67V28.8h6.06ZM48,57.6a10.56,10.56,0,0,1-10.12-6.07l4.55-3c1.24,2,2.59,4,5.44,4,2.4,0,3.65-1.19,3.65-2.85,0-2-1.3-2.68-3.93-3.84l-1.45-.62c-4.17-1.78-6.95-4-6.95-8.71,0-4.34,3.31-7.64,8.47-7.64,3.68,0,6.32,1.28,8.23,4.63l-4.5,2.89c-1-1.78-2.06-2.48-3.73-2.48a2.52,2.52,0,0,0-2.76,2.48c0,1.74,1.07,2.44,3.55,3.51l1.44.63c4.92,2.1,7.7,4.25,7.7,9.08C57.6,54.74,53.5,57.6,48,57.6Z"/></g></g></svg>