<svg xmlns="http://www.w3.org/2000/svg" viewBox="0 0 53.64 59.6"><defs><style>.cls-1{fill:#474747;}</style></defs><title>mongo</title><g id="Layer_2" data-name="Layer 2"><g id="Layer_1-2" data-name="Layer 1"><path class="cls-1" d="M53.56,16.69c0-.27,0-.55,0-.81-.12-2.05-.3-3.86-.49-5.45a8.75,8.75,0,0,0-6.55-7.6c-1.59-.46-3.5-.94-5.63-1.37-.77-.16-1.58-.31-2.41-.44A70,70,0,0,0,26.82,0,70.31,70.31,0,0,0,15.19,1c-.83.13-1.64.28-2.41.44-2.17.42-4.13.91-5.78,1.37a8.75,8.75,0,0,0-6.4,7.6C.45,11.7.3,13.15.19,14.73c0,.39-.06.8-.08,1.21C0,17.18,0,18.48,0,19.82,0,50.36,26.82,59.6,26.82,59.6s26.82-9.24,26.82-39.78C53.64,18.72,53.62,17.69,53.56,16.69Zm-26.74,38C21.6,52.3,4.47,42.91,4.47,19.82A84.08,84.08,0,0,1,4.92,11,4.3,4.3,0,0,1,8.19,7.15,74.18,74.18,0,0,1,26.82,4.47,74.09,74.09,0,0,1,45.44,7.15,4.49,4.49,0,0,1,48.72,11a84.08,84.08,0,0,1,.45,8.79A37.08,37.08,0,0,1,26.82,54.68Z"/><path class="cls-1" d="M35.76,28.31c0,7.75-4.92,12.66-7.45,14.9v4.47h-3V43.21c-2.53-2.24-7.45-7.15-7.45-14.9,0-11.92,8.94-19.37,8.94-19.37S35.76,16.39,35.76,28.31Z"/></g></g></svg>