<svg xmlns="http://www.w3.org/2000/svg" viewBox="0 0 97.05 65.91"><defs><style>.cls-1{fill:#474747;}</style></defs><title>mysql</title><g id="Layer_2" data-name="Layer 2"><g id="Layer_1-2" data-name="Layer 1"><path class="cls-1" d="M23.33,60.05H19.59q-.19-9.49-1.1-17.84h0l-5.7,17.84H9.91L4.24,42.21h0q-.63,8-.8,17.84H0Q.33,48.11,1.66,37.67H6.3l5.4,16.44h0l5.44-16.44h4.44q1.45,12.24,1.72,22.38M39.57,43.54q-2.28,12.41-6,18c-1.94,2.89-4.08,4.33-6.4,4.33a6.1,6.1,0,0,1-2.28-.56v-2a11.52,11.52,0,0,0,1.55.1,3.74,3.74,0,0,0,2.62-.9,3.24,3.24,0,0,0,1.2-2.45,16.23,16.23,0,0,0-.93-3.81L25.19,43.54h3.68l2.95,9.54a13,13,0,0,1,.83,4.54A62.27,62.27,0,0,0,36,43.54Z"/><path class="cls-1" d="M89.42,60.05H78.78V37.67h3.58V57.29h7.06ZM76,60.59l-4.11-2a8,8,0,0,0,1-1c1.75-2.06,2.62-5.09,2.62-9.12q0-11.1-8.71-11.1a8.25,8.25,0,0,0-6.66,2.82q-2.62,3.08-2.62,9.08c0,3.93.77,6.82,2.32,8.65q2.12,2.49,6.4,2.49a10,10,0,0,0,2.92-.4l5.36,3.12Zm-13.32-5q-1.36-2.19-1.36-7,0-8.44,5.13-8.45a4.32,4.32,0,0,1,4,2c.9,1.46,1.36,3.78,1.36,7q0,8.52-5.14,8.52a4.3,4.3,0,0,1-3.94-2M56,53.84a6,6,0,0,1-2.09,4.68,8.24,8.24,0,0,1-5.6,1.82,11.19,11.19,0,0,1-6.36-2.09l1-1.92a11,11,0,0,0,4.8,1.32,5,5,0,0,0,3.17-.89,3,3,0,0,0,1.22-2.48c0-1.33-.93-2.47-2.63-3.42s-4.7-2.66-4.7-2.66a5.37,5.37,0,0,1-2.56-4.76,5.56,5.56,0,0,1,1.91-4.39A7.16,7.16,0,0,1,49,37.37,10.23,10.23,0,0,1,54.69,39L53.83,41A11.11,11.11,0,0,0,49.52,40a3.81,3.81,0,0,0-2.65.83,2.76,2.76,0,0,0-1,2.12c0,1.32.94,2.47,2.69,3.44,1.59.86,4.8,2.7,4.8,2.7A5.26,5.26,0,0,1,56,53.84"/><path class="cls-1" d="M93.91,30.18a12.32,12.32,0,0,0-5.24.76c-.41.16-1,.16-1.11.67.22.22.25.57.44.87a6.13,6.13,0,0,0,1.4,1.64c.57.44,1.14.87,1.73,1.25,1.06.65,2.25,1,3.27,1.67.6.38,1.19.87,1.79,1.27.29.22.48.57.86.71v-.09c-.19-.24-.24-.59-.43-.86l-.81-.78A12.75,12.75,0,0,0,93,34.56c-.87-.6-2.76-1.41-3.11-2.41l-.06,0a10.82,10.82,0,0,0,1.87-.44c.92-.24,1.76-.19,2.7-.43.44-.11.87-.24,1.3-.38v-.24c-.49-.49-.84-1.13-1.35-1.59a35.67,35.67,0,0,0-4.46-3.33c-.84-.54-1.92-.89-2.81-1.35-.33-.16-.87-.24-1.06-.52a10.85,10.85,0,0,1-1.11-2.08c-.78-1.48-1.54-3.13-2.21-4.7A29.67,29.67,0,0,0,81.32,14,27.24,27.24,0,0,0,70.86,3.85,13,13,0,0,0,67.4,2.74l-2-.11a9.68,9.68,0,0,1-1.24-.95c-1.55-1-5.52-3.08-6.65-.29-.74,1.75,1.08,3.48,1.7,4.38a13.11,13.11,0,0,1,1.38,2c.19.46.24,1,.43,1.44a31.57,31.57,0,0,0,1.41,3.62,12.66,12.66,0,0,0,1,1.67c.22.3.6.44.68.92a8.3,8.3,0,0,0-.62,2,11.9,11.9,0,0,0,.79,9.08c.43.68,1.46,2.17,2.83,1.6s1-2,1.3-3.38c.08-.33,0-.54.19-.76v.06c.38.75.76,1.48,1.11,2.24a15.68,15.68,0,0,0,3.51,3.62c.65.49,1.16,1.33,2,1.63v-.09H75.1a2.64,2.64,0,0,0-.62-.53,12.47,12.47,0,0,1-1.4-1.63,34,34,0,0,1-3-4.92c-.44-.84-.81-1.76-1.16-2.59-.17-.33-.17-.81-.44-1a10.25,10.25,0,0,0-1.29,1.84,15,15,0,0,0-.76,4.09l-.11.05c-.86-.22-1.16-1.11-1.49-1.87a11.73,11.73,0,0,1-.24-7.22c.19-.56,1-2.35.68-2.89-.17-.51-.71-.81-1-1.22a10.88,10.88,0,0,1-1-1.72c-.65-1.52-1-3.19-1.67-4.71a15.07,15.07,0,0,0-1.35-2.08A13.07,13.07,0,0,1,58.75,3c-.14-.3-.33-.78-.11-1.11,0-.21.16-.29.38-.35.35-.29,1.35.08,1.7.24A14,14,0,0,1,63.4,3.12c.38.27.78.78,1.27.92h.57c.86.18,1.83,0,2.65.29A17.29,17.29,0,0,1,71.78,6.2a23.93,23.93,0,0,1,8.43,9.24c.32.62.46,1.19.76,1.84.57,1.33,1.27,2.68,1.84,4a17.59,17.59,0,0,0,1.92,3.62c.4.57,2,.86,2.75,1.16a18.26,18.26,0,0,1,1.87.76c.92.56,1.84,1.21,2.7,1.84.43.32,1.78,1,1.86,1.54M66.34,6.69a4.16,4.16,0,0,0-1.11.13v.06h.06A7.73,7.73,0,0,0,66.15,8c.22.44.41.87.62,1.3l0,0a1.54,1.54,0,0,0,.57-1.36,5.33,5.33,0,0,1-.32-.56c-.16-.27-.51-.41-.73-.62"/><path class="cls-1" d="M96.49,60h.56V57.3h-.84l-.69,1.87-.74-1.87H94V60h.53V58h0L95.31,60h.4L96.49,58V60ZM92,60h.59V57.77h.78V57.3H91.17v.47H92V60Z"/></g></g></svg>