<svg xmlns="http://www.w3.org/2000/svg" viewBox="0 0 105.97 55.73"><defs><style>.cls-1{fill:#474747;}</style></defs><title>php</title><g id="Layer_2" data-name="Layer 2"><g id="Layer_1-2" data-name="Layer 1"><path class="cls-1" d="M53,2.78c28.38,0,50.2,12,50.2,25.09S81.35,53,53,53,2.78,41,2.78,27.87,24.62,2.78,53,2.78M53,0C23.73,0,0,12.47,0,27.87S23.73,55.73,53,55.73s53-12.46,53-27.86S82.24,0,53,0ZM36.13,25.63c-1.31,6.71-5.93,6-11.61,6L26.79,20c6.29,0,10.56-.68,9.34,5.68Zm-20,17.85H22.2l1.44-7.42c6.81,0,11,.5,14.94-3.16,4.32-4,5.45-11,2.37-14.59-1.61-1.85-4.19-2.76-7.7-2.76H21.54ZM46.88,8.11h6l-1.44,7.42c5.21,0,10.05-.38,12.38,1.77S65.14,22.44,62.49,36H56.36c2.55-13.15,3-14.24,2.11-15.23S55.54,20,50.62,20L47.51,36h-6L46.88,8.11ZM83.62,25.63c-1.33,6.81-6.08,6-11.61,6L74.28,20c6.32,0,10.56-.68,9.34,5.68Zm-20,17.85h6.09l1.44-7.42c7.15,0,11.11.42,14.94-3.16,4.32-4,5.44-11,2.36-14.59-1.6-1.85-4.19-2.76-7.7-2.76H69.05Z"/></g></g></svg>