<svg xmlns="http://www.w3.org/2000/svg" viewBox="0 0 64.16 64.16"><defs><style>.cls-1{fill:#474747;}</style></defs><title>ps</title><g id="Layer_2" data-name="Layer 2"><g id="Layer_1-2" data-name="Layer 1"><path class="cls-1" d="M5.83,0A5.83,5.83,0,0,0,0,5.83v52.5a5.83,5.83,0,0,0,5.83,5.83h52.5a5.83,5.83,0,0,0,5.83-5.83V5.83A5.83,5.83,0,0,0,58.33,0Zm5.84,17.47h11.6c5.74,0,9.67,3.93,9.67,9.73s-4.07,9.61-9.89,9.61H16.81v9.43H11.67Zm5.14,4.31V32.55h5.08c3.67,0,5.83-1.92,5.83-5.35s-2.1-5.42-5.81-5.42ZM44.35,24c5.18,0,8.43,2.29,8.79,6.26H48.5c-.36-1.53-1.82-2.51-4.13-2.51s-3.95,1.08-3.95,2.65c0,1.24,1,2,3.23,2.49l3.85.88c4.17.94,6.1,2.73,6.1,5.94,0,4.19-3.85,7-9.29,7s-8.87-2.35-9.25-6.32H40c.47,1.62,2,2.58,4.48,2.58s4.22-1.1,4.22-2.72c0-1.23-.93-2-3-2.47l-3.87-.9c-4.19-1-6.16-2.89-6.16-6.18C35.62,26.72,39.2,24,44.35,24Z"/></g></g></svg>