<svg xmlns="http://www.w3.org/2000/svg" viewBox="0 0 63.04 63.04"><defs><style>.cls-1{fill:#474747;}</style></defs><title>python</title><g id="Layer_2" data-name="Layer 2"><g id="Layer_1-2" data-name="Layer 1"><path class="cls-1" d="M30.83,0C18.91,0,16.44,6.16,16.44,9.72v6.72H30.15v1.38H9.72C5.2,17.82,0,21.38,0,31.52s5.2,13.7,9.72,13.7h8.1V37a5.49,5.49,0,0,1,5.48-5.48H39.74a4,4,0,0,0,4.11-4.11V9.72C43.85,4.92,39.33,0,30.83,0ZM24.67,6.85a2.74,2.74,0,1,1-2.74,2.74A2.74,2.74,0,0,1,24.67,6.85Zm20.55,11v9.59a5.49,5.49,0,0,1-5.48,5.48H23.3A4,4,0,0,0,19.19,37V53.32c0,4.79,4.52,9.72,13,9.72,11.93,0,14.39-6.16,14.39-9.72V46.59H32.89V45.22H53.32c4.52,0,9.72-3.56,9.72-13.7s-5.2-13.7-9.72-13.7ZM38.37,50.71a2.74,2.74,0,1,1-2.74,2.74A2.74,2.74,0,0,1,38.37,50.71Z"/></g></g></svg>