<svg xmlns="http://www.w3.org/2000/svg" viewBox="0 0 69.05 63.04"><defs><style>.cls-1{fill:#474747;fill-rule:evenodd;}</style></defs><title>react</title><g id="Layer_2" data-name="Layer 2"><g id="Layer_1-2" data-name="Layer 1"><path class="cls-1" d="M48.86,0a10.81,10.81,0,0,0-3.62.57,24.4,24.4,0,0,0-7.67,4.49c-1,.84-2.08,1.81-3.13,2.83-1-1-2-1.93-3.06-2.76A24.63,24.63,0,0,0,23.73.64,8.41,8.41,0,0,0,16.84,1,8.42,8.42,0,0,0,13.1,6.77a24.55,24.55,0,0,0,.06,8.88c.19,1.17.46,2.39.76,3.64-1.14.34-2.25.71-3.28,1.11a24,24,0,0,0-7.56,4.4A8.46,8.46,0,0,0,0,30.93a8.47,8.47,0,0,0,3.08,6.12,24,24,0,0,0,7.56,4.4c1.1.43,2.29.82,3.52,1.19a47.54,47.54,0,0,0-1,4.78,24.55,24.55,0,0,0-.06,8.88,8.41,8.41,0,0,0,3.75,5.82,8.42,8.42,0,0,0,6.91.34A24.59,24.59,0,0,0,31.39,58c1-.84,2.06-1.79,3.1-2.8,1,1,2.08,2,3.11,2.81a24.47,24.47,0,0,0,7.66,4.49,8.37,8.37,0,0,0,6.89-.34,8.36,8.36,0,0,0,3.73-5.79,24.49,24.49,0,0,0-.06-8.87,45.37,45.37,0,0,0-1-4.8c1.27-.38,2.5-.77,3.64-1.22A23.8,23.8,0,0,0,66,37.05a8.45,8.45,0,0,0,3.09-6.12A8.43,8.43,0,0,0,66,24.8a23.8,23.8,0,0,0-7.55-4.4c-1-.41-2.17-.78-3.34-1.13.31-1.25.58-2.48.77-3.66a24.6,24.6,0,0,0,.06-8.89A8.44,8.44,0,0,0,52.15.91,7,7,0,0,0,48.86,0Zm-.14,3.06a4,4,0,0,1,1.9.5c1.07.62,1.86,1.82,2.28,3.81a22,22,0,0,1-.09,7.76c-.17,1.06-.42,2.19-.7,3.34a70.46,70.46,0,0,0-10-1.61,69.59,69.59,0,0,0-5.51-6.77c1-1,2-1.87,2.92-2.64a21.8,21.8,0,0,1,6.68-4A7.46,7.46,0,0,1,48.72,3.06Zm-28.47,0a7.73,7.73,0,0,1,2.55.42,22.21,22.21,0,0,1,6.69,4c.93.76,1.89,1.64,2.86,2.58a71.28,71.28,0,0,0-5.56,6.84,69.69,69.69,0,0,0-10,1.62c-.28-1.15-.53-2.27-.7-3.33A22.1,22.1,0,0,1,16,7.4a5.39,5.39,0,0,1,2.31-3.82A3.87,3.87,0,0,1,20.25,3.07Zm14.24,9.17q1.83,2,3.65,4.36c-1.19-.05-2.39-.08-3.62-.08s-2.48,0-3.69.08C32,15,33.27,13.58,34.49,12.24Zm0,7.31c2,0,4,.08,6,.22,1.33,1.91,2.63,3.94,3.87,6.09,1.09,1.89,2.07,3.77,3,5.63-.91,1.88-1.91,3.79-3,5.7-1,1.69-2,3.29-3,4.83-2.19.18-4.45.28-6.78.28s-4.69-.11-6.93-.3c-1-1.52-2-3.09-3-4.75-1.1-1.91-2.09-3.81-3-5.69.91-1.89,1.91-3.81,3-5.73,1.23-2.13,2.53-4.15,3.85-6Q31.43,19.56,34.52,19.55Zm9.83.6A66,66,0,0,1,51.3,21.4,68.53,68.53,0,0,1,48.92,28c-.62-1.19-1.27-2.4-2-3.6C46.11,22.9,45.24,21.51,44.35,20.15Zm-19.81,0c-.87,1.34-1.73,2.7-2.55,4.13-.71,1.22-1.36,2.44-2,3.65a65.18,65.18,0,0,1-2.37-6.52A62.29,62.29,0,0,1,24.54,20.17Zm29.73,2c1.07.32,2.09.65,3,1a21.57,21.57,0,0,1,6.6,3.8A5.43,5.43,0,0,1,66,30.93a5.43,5.43,0,0,1-2.11,3.9,21.37,21.37,0,0,1-6.6,3.8c-1.05.41-2.2.78-3.4,1.13a72.79,72.79,0,0,0-3.24-8.2A70.76,70.76,0,0,0,54.27,22.2Zm-39.55,0a73,73,0,0,0,3.55,9.27A74.31,74.31,0,0,0,15,39.73c-1.16-.34-2.27-.7-3.28-1.1a21.25,21.25,0,0,1-6.6-3.8A5.43,5.43,0,0,1,3,30.93,5.43,5.43,0,0,1,5.14,27a21.45,21.45,0,0,1,6.6-3.8C12.67,22.86,13.68,22.53,14.72,22.21ZM34.52,24A7.51,7.51,0,1,0,42,31.54,7.53,7.53,0,0,0,34.52,24ZM20,35.08c.63,1.22,1.29,2.45,2,3.67.55,1,1.12,1.9,1.69,2.81-2-.28-3.93-.63-5.73-1.05C18.56,38.76,19.25,36.94,20,35.08Zm28.92,0c.79,1.87,1.48,3.69,2,5.44-1.8.42-3.73.77-5.75,1,.59-.93,1.16-1.87,1.72-2.84C47.67,37.51,48.33,36.29,49,35.08ZM17.13,43.42a67.24,67.24,0,0,0,8.78,1.46A72.62,72.62,0,0,0,32.35,53c-1,1-2,1.85-2.9,2.62a22,22,0,0,1-6.68,3.95c-1.92.63-3.36.55-4.43-.07s-1.86-1.82-2.28-3.81a21.77,21.77,0,0,1,.08-7.76C16.37,46.5,16.71,45,17.13,43.42Zm34.74,0c.42,1.57.76,3.08,1,4.5A22.1,22.1,0,0,1,53,55.71c-.43,2-1.22,3.2-2.3,3.83s-2.53.7-4.47.08a22.21,22.21,0,0,1-6.68-4c-1-.78-1.93-1.68-2.92-2.64a73.37,73.37,0,0,0,6.48-8.13A69.81,69.81,0,0,0,51.87,43.44Zm-22,1.75c1.54.09,3.1.14,4.7.14s3.06,0,4.55-.13a66.54,66.54,0,0,1-4.63,5.61A72.68,72.68,0,0,1,29.82,45.19Z"/></g></g></svg>