<svg xmlns="http://www.w3.org/2000/svg" viewBox="0 0 63.04 63.04"><defs><style>.cls-1{fill:#474747;}</style></defs><title>swift</title><g id="Layer_2" data-name="Layer 2"><g id="Layer_1-2" data-name="Layer 1"><path class="cls-1" d="M57.31,0H5.73A5.72,5.72,0,0,0,0,5.73V57.31A5.73,5.73,0,0,0,5.73,63H57.31A5.74,5.74,0,0,0,63,57.31V5.73A5.73,5.73,0,0,0,57.31,0ZM53.88,51.58s-2.51-4.29-6.72-4.29c-4.06,0-7.17,4.29-15.35,4.29-15.19,0-23.8-11.3-26-14.82a.3.3,0,0,1,.43-.41c6.46,4.08,12.71,6.06,17,6.06a16,16,0,0,0,9.9-3.06c-5.83-3.44-19.8-19.48-22.77-24a.31.31,0,0,1,.45-.41c12.1,10.21,19,14.06,19,14.06-2.56-2.16-10.19-12.23-13.36-16.71a.3.3,0,0,1,.45-.4C25.59,20,40.76,31.72,40.76,31.72a26.17,26.17,0,0,0,1.52-8.4c-.1-6.53-4.29-13-6-15.57a.3.3,0,0,1,.44-.41C48,15.48,51.42,25.66,51.42,31.53A14.91,14.91,0,0,1,49.9,38.4S56.35,45.45,53.88,51.58Z"/></g></g></svg>