<svg xmlns="http://www.w3.org/2000/svg" viewBox="0 0 63.13 63.13"><defs><style>.cls-1{fill:#474747;}</style></defs><title>unreal</title><g id="Layer_2" data-name="Layer 2"><g id="Layer_1-2" data-name="Layer 1"><path class="cls-1" d="M31.57,0A31.57,31.57,0,1,0,63.13,31.57,31.59,31.59,0,0,0,31.57,0Zm0,2.74A28.83,28.83,0,1,1,2.74,31.57,28.81,28.81,0,0,1,31.57,2.74ZM29.7,11.6a1.53,1.53,0,0,0-.3,0c-5.42,1.3-11,5.1-15.22,9.79S7.09,31.76,7.73,37a1.4,1.4,0,0,0,1.1,1.18,1.38,1.38,0,0,0,1.46-.68c2.68-4.74,4.9-7.36,6.49-8.75a6,6,0,0,1,2.52-1.52h.15s0,0,0,.34V42c0,.17,0,.12,0,.11A5,5,0,0,1,18.17,42a1.39,1.39,0,0,0-1.36.63,1.35,1.35,0,0,0,0,1.49c4.78,7.14,15.24,7.38,15.24,7.38a1.37,1.37,0,0,0,1.07-.44l3.54-3.85L40,50a1.37,1.37,0,0,0,1.64.11,34,34,0,0,0,8.19-7.72A28.8,28.8,0,0,0,52.08,39a14.16,14.16,0,0,0,.65-1.28,2.53,2.53,0,0,0,.3-1.21,1.36,1.36,0,0,0-2.38-.92,14.31,14.31,0,0,1-3.9,3.14,8.86,8.86,0,0,1-1.7.61,1.86,1.86,0,0,1-.26,0V22.74c0,.26.1-.33.46-.95s.89-1.39,1.47-2.17c1.15-1.56,2.47-3.16,3.14-4a1.37,1.37,0,0,0-1.42-2.18,28.93,28.93,0,0,0-9.51,4.28,9.3,9.3,0,0,0-2.11,1.89,1.36,1.36,0,0,0-.21-.1A9.75,9.75,0,0,0,33.37,19a1.37,1.37,0,0,0-.89,2.41,4.75,4.75,0,0,1,1.78,2.93V39.22c-.26.17-.39.28-.9.57a7.69,7.69,0,0,1-2.16.83,2.57,2.57,0,0,1-1.26-.27c-.18-.12-.17-.1-.17-.3V21.38a1.39,1.39,0,0,0-.7-1.2,1.36,1.36,0,0,0-1.38,0,5.88,5.88,0,0,1-.26-2A5.54,5.54,0,0,1,28.9,15.6a14.47,14.47,0,0,1,1.65-1.54,1.37,1.37,0,0,0-.85-2.46Zm-4.54,4.92a4.37,4.37,0,0,0-.47,1.67,8.08,8.08,0,0,0,.46,3.06,2.89,2.89,0,0,0,1.65,1.64c.09,0,.13,0,.22,0V40.05a3.2,3.2,0,0,0,1.4,2.58,4.9,4.9,0,0,0,2.78.74,7.12,7.12,0,0,0,3.5-1.19,17.71,17.71,0,0,0,1.73-1.09A1.39,1.39,0,0,0,37,40V24.33a4.72,4.72,0,0,0-.6-1.89,1.37,1.37,0,0,0,1.71-.38,11.55,11.55,0,0,1,2.41-2.12,24.7,24.7,0,0,1,4.25-2.29c-.1.14-.17.21-.27.35a26.1,26.1,0,0,0-1.62,2.41A4.15,4.15,0,0,0,42,22.74V39.82a2.29,2.29,0,0,0,.48,1.38,2.45,2.45,0,0,0,1,.69,4,4,0,0,0,1.54.23,6.61,6.61,0,0,0,1.86-.58,31.49,31.49,0,0,1-6,5.68L37.46,44.3a1.37,1.37,0,0,0-1.9.11l-3.93,4.27c-.8-.06-6.69-.81-10.71-4.39.25-.15.52-.2.72-.45A3,3,0,0,0,22.22,42V27.6a3.2,3.2,0,0,0-.77-2.23,2.9,2.9,0,0,0-2.15-.86h0c-1.09,0-2.43.54-4.33,2.21a26,26,0,0,0-3.4,3.82,25.63,25.63,0,0,1,4.67-7.28A31.68,31.68,0,0,1,25.16,16.52Z"/></g></g></svg>