<svg xmlns="http://www.w3.org/2000/svg" viewBox="0 0 63.28 63.25"><defs><style>.cls-1{fill:#474747;}</style></defs><title>vs</title><g id="Layer_2" data-name="Layer 2"><g id="Layer_1-2" data-name="Layer 1"><path class="cls-1" d="M46,0a3.65,3.65,0,0,0-1.55.41,4.11,4.11,0,0,1,2.27,3.28c0,.17,0,.33,0,.41v55a4.13,4.13,0,0,1-2.33,3.7,3.37,3.37,0,0,0,3.08.11h0c2.21-1.14,13.27-6.87,13.68-7.1a4.16,4.16,0,0,0,2.08-3.59V11a4.09,4.09,0,0,0-1.82-3.41C61,7.26,47.57.31,47.57.31h0A3.39,3.39,0,0,0,46,0ZM42.64,2.72a1.41,1.41,0,0,0-1,.4S33.8,12,25.08,21.77l10.31,8.44L44,22.94V4.1a1.38,1.38,0,0,0-1.38-1.38ZM8.25,12.35c-.21,0-.61,0-2.4.83-1,.45-4.4,2.25-4.4,2.25A2.8,2.8,0,0,0,.37,16.51a1.66,1.66,0,0,1,.32,0h0a2.3,2.3,0,0,1,1.68.85s38.8,42.26,39.3,42.76a1.38,1.38,0,0,0,2.35-1V40.78L10.1,13.06A2.77,2.77,0,0,0,8.25,12.35Zm-8,6.88A.27.27,0,0,0,0,19.5V45.1a.28.28,0,0,0,.27.27.26.26,0,0,0,.19-.09l7.79-8.65V27.51L.47,19.31A.28.28,0,0,0,.27,19.23ZM14.1,34.1S2.28,47.38,2.15,47.51a2,2,0,0,1-1.46.6,1.73,1.73,0,0,1-.32,0,2.76,2.76,0,0,0,1.19,1.13h0c1.19.61,5.14,2.61,5.66,2.82a2.62,2.62,0,0,0,1,.2,2.81,2.81,0,0,0,1.38-.36L21.36,42Z"/></g></g></svg>