<svg xmlns="http://www.w3.org/2000/svg" viewBox="0 0 63.2 63.2"><defs><style>.cls-1{fill:#474747;}</style></defs><title>xd</title><g id="Layer_2" data-name="Layer 2"><g id="Layer_1-2" data-name="Layer 1"><path class="cls-1" d="M42.94,28.9a2.5,2.5,0,0,0-2.34,1.29,10.05,10.05,0,0,0-.74,4.61v1.55a10.61,10.61,0,0,0,.7,4.6,2.45,2.45,0,0,0,2.36,1.3,2.83,2.83,0,0,0,2.61-1.54V30.55A2.76,2.76,0,0,0,42.94,28.9ZM56.18,0H7A7,7,0,0,0,0,7V56.18a7,7,0,0,0,7,7H56.18a7,7,0,0,0,7-7V7A7,7,0,0,0,56.18,0ZM27.72,46.7h-.1a3.06,3.06,0,0,1-2.84-1.94l-3.35-8.54-3.34,8.53a3.06,3.06,0,0,1-2.84,2h-.09a3.06,3.06,0,0,1-2.76-4.37L17.52,31.6l-5-10.49a3.06,3.06,0,0,1,2.76-4.37h0a3.06,3.06,0,0,1,2.85,1.94L21.43,27l3.27-8.35a3.06,3.06,0,0,1,2.84-1.94h0a3,3,0,0,1,2.75,4.36l-5,10.5,5.11,10.73A3.05,3.05,0,0,1,27.72,46.7ZM51.4,44.13a2.91,2.91,0,0,1-2.91,2.92h0a2.86,2.86,0,0,1-2.8-2.38,5.28,5.28,0,0,1-4.41,2.44,6.07,6.07,0,0,1-5.34-2.68Q34.06,41.76,34,36.57V34.89q0-5.48,1.86-8.17A6.11,6.11,0,0,1,41.25,24a5.18,5.18,0,0,1,4.28,2.22V18a2.91,2.91,0,0,1,2.92-2.91h0A2.91,2.91,0,0,1,51.4,18V44.13Z"/></g></g></svg>